<?xml version="1.0" encoding="UTF-8" standalone="no"?>
<svg
   xmlns:dc="http://purl.org/dc/elements/1.1/"
   xmlns:cc="http://creativecommons.org/ns#"
   xmlns:rdf="http://www.w3.org/1999/02/22-rdf-syntax-ns#"
   xmlns:svg="http://www.w3.org/2000/svg"
   xmlns="http://www.w3.org/2000/svg"
   xmlns:sodipodi="http://sodipodi.sourceforge.net/DTD/sodipodi-0.dtd"
   xmlns:inkscape="http://www.inkscape.org/namespaces/inkscape"
   sodipodi:docname="mountain.svg"
   inkscape:version="1.0 (4035a4fb49, 2020-05-01)"
   id="svg8"
   version="1.1"
   viewBox="0 0 101.35958 42.390392"
   height="42.390392mm"
   width="101.35958mm">
  <defs
     id="defs2" />
  <sodipodi:namedview
     inkscape:window-maximized="1"
     inkscape:window-y="359"
     inkscape:window-x="1072"
     inkscape:window-height="1017"
     inkscape:window-width="1920"
     showgrid="false"
     inkscape:document-rotation="0"
     inkscape:current-layer="layer1"
     inkscape:document-units="mm"
     inkscape:cy="371.81329"
     inkscape:cx="41.022294"
     inkscape:zoom="0.49497475"
     inkscape:pageshadow="2"
     inkscape:pageopacity="0.0"
     borderopacity="1.0"
     bordercolor="#666666"
     pagecolor="#ffffff"
     id="base" />
  <metadata
     id="metadata5">
    <rdf:RDF>
      <cc:Work
         rdf:about="">
        <dc:format>image/svg+xml</dc:format>
        <dc:type
           rdf:resource="http://purl.org/dc/dcmitype/StillImage" />
        <dc:title></dc:title>
      </cc:Work>
    </rdf:RDF>
  </metadata>
  <g
     transform="translate(-52.917198,-15.035164)"
     id="layer1"
     inkscape:groupmode="layer"
     inkscape:label="Ebene 1">
    <g
       inkscape:export-ydpi="132"
       inkscape:export-xdpi="132"
       transform="translate(-25.123336,-30.468726)"
       id="g45">
      <g
         id="g83">
        <path
           id="path30"
           d="m 133.90203,87.798038 0.86863,-3.207234 6.81537,-10.958049 -0.53454,-5.946749 4.40995,2.472243 8.15172,-7.082641 -3.54132,-4.209495 2.53906,-5.612662 5.74629,0.534541 0.35079,-4.493469 -5.46232,-3.608139 25.86781,0.14323 -13.51265,15.733257 -5.81139,1.13393 -7.37053,11.622767 -7.60677,1.842633 z"
           style="fill:none;stroke:#000000;stroke-width:0.264583px;stroke-linecap:butt;stroke-linejoin:miter;stroke-opacity:1" />
        <path
           id="path32"
           d="m 133.90203,87.798036 -14.66641,-13.831194 -1.83748,-4.209497 1.40316,-3.541321 -2.53906,-3.80859 6.68174,-3.541321 2.47224,-8.418991 8.48581,-4.81085 19.34363,0.05011"
           style="fill:none;stroke:#000000;stroke-width:0.264583px;stroke-linecap:butt;stroke-linejoin:miter;stroke-opacity:1" />
        <path
           id="path34"
           d="m 119.23562,73.966842 -7.44916,-0.403228 0.18899,-4.866441 -1.55916,-5.149927 -1.46465,-11.197545 5.81138,7.748513 4.016,-6.803572 -1.84264,-7.654018 16.96565,-0.0043"
           style="fill:none;stroke:#000000;stroke-width:0.264583px;stroke-linecap:butt;stroke-linejoin:miter;stroke-opacity:1" />
        <path
           id="path36"
           d="m 111.78646,73.563614 -9.38882,-7.848719 -9.721931,-14.399146 3.340867,8.15172 -0.601355,2.472243 0.801809,1.202713 -1.135896,1.202714 L 92.074351,63.476512 78.309972,45.70309 116.93638,45.64062"
           style="fill:none;stroke:#000000;stroke-width:0.264583px;stroke-linecap:butt;stroke-linejoin:miter;stroke-opacity:1" />
        <path
           id="path38"
           d="m 95.081134,64.345139 7.316506,1.369756"
           style="fill:none;stroke:#000000;stroke-width:0.264583px;stroke-linecap:butt;stroke-linejoin:miter;stroke-opacity:1" />
        <path
           style="fill:#b4e0eb;fill-opacity:1;stroke-width:0.0674916;stroke-linecap:round;stroke-linejoin:round;stroke-dashoffset:3.19937;paint-order:fill markers stroke"
           d="m 478.36692,305.04588 -27.40878,-25.85677 -1.99979,-4.62135 c -1.09988,-2.54174 -2.61864,-6.04048 -3.37502,-7.77498 l -1.37524,-3.15364 2.6161,-6.60176 c 1.43885,-3.63096 2.61609,-6.69251 2.61609,-6.80342 0,-0.11092 -2.09495,-3.34256 -4.65545,-7.18142 -2.56049,-3.83887 -4.62911,-7.00609 -4.59692,-7.03828 0.0322,-0.0322 5.64024,-3.01776 12.46234,-6.63461 l 12.40382,-6.57609 4.66275,-15.88057 c 3.55285,-12.1004 4.74437,-15.93397 5.00561,-16.10493 0.18857,-0.12341 7.3741,-4.21524 15.96785,-9.09297 l 15.625,-8.86861 13.21428,0.10734 c 7.26786,0.059 23.62054,0.10878 36.33929,0.11054 l 23.125,0.003 9.46429,6.25112 c 5.20535,3.43812 9.78703,6.47542 10.1815,6.74955 l 0.71722,0.49844 -0.62146,8.06879 -0.62146,8.06879 h -0.40841 c -0.38482,0 -15.85709,-1.41079 -19.508,-1.77877 -0.92905,-0.0936 -1.69764,-0.1536 -1.70799,-0.13324 -0.44244,0.87069 -9.72783,21.58961 -9.72783,21.70616 0,0.0943 2.93333,3.65468 6.51851,7.9119 3.58519,4.25721 6.49813,7.82861 6.47322,7.93646 -0.0551,0.23829 -29.72033,26.03456 -30.01532,26.10065 -0.1147,0.0257 -3.98534,-2.0729 -8.60141,-4.66357 -5.65893,-3.17594 -8.41176,-4.63035 -8.45088,-4.46489 -0.0319,0.13498 0.39991,5.33093 0.95961,11.54656 l 1.01764,11.30116 -12.83093,20.61701 -12.83094,20.617 -1.55675,5.68998 c -0.85622,3.12949 -1.58196,5.71518 -1.61275,5.74597 -0.0308,0.0308 -12.38995,-11.57955 -27.46479,-25.80077 z"
           id="path61"
           transform="scale(0.26458333)" />
        <path
           style="fill:#b4e0eb;fill-opacity:1;stroke-width:0.0954475;stroke-linecap:round;stroke-linejoin:round;stroke-dashoffset:3.19937;paint-order:fill markers stroke"
           d="m 404.66565,262.54018 -17.32839,-14.48762 -18.33751,-27.1603 c -13.15351,-19.48209 -18.44081,-27.12065 -18.70292,-27.02007 -0.20098,0.0771 -0.31672,0.32342 -0.2572,0.54733 0.0595,0.22392 2.87318,7.15248 6.2526,15.39682 l 6.14439,14.98971 -1.14998,4.70168 -1.14999,4.70168 1.47358,2.19152 1.47357,2.19152 -1.94702,2.05849 -1.94703,2.05848 -5.46675,-1.5961 -5.46675,-1.5961 -25.61535,-33.07816 -25.61536,-33.07816 20.60177,-0.15314 c 11.33098,-0.0842 43.86785,-0.16946 72.30415,-0.18941 l 51.70237,-0.0363 0.1378,0.56821 c 0.0758,0.31252 1.61203,6.69498 3.41386,14.18326 l 3.27605,13.61505 -7.23032,12.27011 c -3.97667,6.74856 -7.31143,12.36048 -7.41056,12.47093 -0.0991,0.11046 -5.21406,-6.51217 -11.3665,-14.71695 -6.15243,-8.20478 -11.2102,-14.8864 -11.23948,-14.84804 -0.0293,0.0384 1.23561,9.88876 2.81087,21.88978 l 2.86412,21.82003 2.93779,9.73471 2.9378,9.73471 -0.32387,8.66195 c -0.17813,4.76408 -0.35165,8.66196 -0.38561,8.66196 -0.034,0 -7.85951,-6.51943 -17.39013,-14.48762 z"
           id="path63"
           transform="scale(0.26458333)" />
        <path
           style="fill:#0088a2;fill-opacity:1;stroke-width:0.0477237;stroke-linecap:round;stroke-linejoin:round;stroke-dashoffset:3.19937;paint-order:fill markers stroke"
           d="m 372.9461,245.26954 c -6.89251,-1.29552 -12.532,-2.38749 -12.5322,-2.4266 -2.1e-4,-0.0391 0.69009,-0.8062 1.53399,-1.70463 0.8439,-0.89844 1.70575,-1.81653 1.91523,-2.0402 l 0.38087,-0.40669 -1.55726,-2.3428 -1.55725,-2.3428 1.09579,-4.51099 c 0.60268,-2.48104 1.09504,-4.61006 1.09412,-4.73116 -9.2e-4,-0.1211 -2.3914,-6.05093 -5.31217,-13.1774 -2.92077,-7.12647 -5.28857,-12.97915 -5.26176,-13.00596 0.0364,-0.0364 31.69565,46.74044 32.96585,48.70744 0.22698,0.3515 0.22698,0.36107 0,0.34933 -0.12836,-0.007 -5.8727,-1.07203 -12.76521,-2.36754 z"
           id="path65"
           transform="scale(0.26458333)" />
        <path
           style="fill:#0088a2;fill-opacity:1;stroke-width:0.0954475;stroke-linecap:round;stroke-linejoin:round;stroke-dashoffset:3.19937;paint-order:fill markers stroke"
           d="m 444.04378,278.78991 c -2.01399,-0.12092 -7.50487,-0.43393 -12.20195,-0.69558 -4.69708,-0.26165 -8.60919,-0.54477 -8.69357,-0.62915 -0.0844,-0.0844 -0.009,-4.16114 0.16774,-9.05945 l 0.32115,-8.90603 -2.93661,-9.66692 -2.93662,-9.66692 -2.63403,-20.1151 c -1.44872,-11.0633 -2.59776,-20.15136 -2.55343,-20.1957 0.0443,-0.0443 4.82291,6.24205 10.61905,13.96975 5.79614,7.7277 10.62572,13.95235 10.73239,13.83256 0.10668,-0.11979 3.63074,-6.051 7.83124,-13.18047 l 7.63729,-12.96267 -3.41357,-14.1845 c -1.87747,-7.80147 -3.3844,-14.21367 -3.34875,-14.24932 0.0357,-0.0357 13.86243,-0.036 30.72616,-6.8e-4 l 30.66132,0.0641 -14.89975,8.43003 c -8.19486,4.63652 -15.04338,8.56281 -15.21893,8.72509 -0.17555,0.16229 -2.4031,7.39206 -4.95011,16.06617 l -4.63093,15.7711 -12.77114,6.78667 -12.77114,6.78667 4.87049,7.30313 4.87049,7.30313 -2.64544,6.66865 -2.64543,6.66864 3.17003,7.27329 c 1.74351,4.00031 3.24572,7.47216 3.33825,7.71523 0.1935,0.50835 0.27037,0.50635 -5.6942,0.14823 z"
           id="path67"
           transform="scale(0.26458333)" />
        <path
           style="fill:#0088a2;fill-opacity:1;stroke-width:0.0954475;stroke-linecap:round;stroke-linejoin:round;stroke-dashoffset:3.19937;paint-order:fill markers stroke"
           d="m 507.15955,329.50768 c 0.10405,-0.34724 0.72761,-2.63781 1.38568,-5.09015 l 1.1965,-4.45881 12.91823,-20.7666 12.91823,-20.7666 -0.97587,-10.76128 c -0.53672,-5.9187 -0.94335,-10.80449 -0.90361,-10.8573 0.0397,-0.0528 3.6514,1.90751 8.02593,4.35628 4.37452,2.44877 8.01374,4.45231 8.08715,4.45231 0.23891,0 31.21233,-27.00433 31.20391,-27.2053 -0.004,-0.1073 -2.81936,-3.53504 -6.25526,-7.61721 -3.43591,-4.08216 -6.40819,-7.6783 -6.60508,-7.99142 -0.33307,-0.52968 -0.0372,-1.27866 4.25115,-10.76063 2.53502,-5.60523 4.6346,-10.21683 4.66572,-10.248 0.0311,-0.0312 4.92524,0.39691 10.8758,0.95131 5.95057,0.55439 10.85377,0.97344 10.89599,0.93122 0.13154,-0.13154 1.45976,-17.5981 1.34507,-17.68817 -0.0597,-0.0469 -4.31324,-2.85003 -9.45239,-6.22925 -5.13915,-3.37922 -9.45755,-6.25171 -9.59645,-6.38332 -0.15906,-0.15072 12.88092,-0.18269 35.22907,-0.0864 40.87594,0.17617 59.39879,0.38307 59.2939,0.66234 -0.0405,0.10794 -11.29969,13.26494 -25.02033,29.23777 -15.39096,17.91733 -25.16102,29.09377 -25.50635,29.17795 -0.30785,0.075 -5.26793,1.05389 -11.02238,2.17519 -5.75446,1.12131 -10.48427,2.06564 -10.51069,2.09851 -0.0264,0.0329 -6.27335,9.88982 -13.88209,21.90432 -7.60873,12.0145 -13.85563,21.87373 -13.88199,21.90939 -0.0264,0.0357 -6.504,1.62665 -14.39475,3.53553 l -14.34681,3.4707 -18.81184,20.07678 c -21.78573,23.25064 -21.38508,22.83398 -21.12644,21.97082 z"
           id="path71"
           transform="scale(0.26458333)" />
      </g>
    </g>
  </g>
</svg>
